<?xml version="1.0" standalone="no"?><!DOCTYPE svg PUBLIC "-//W3C//DTD SVG 1.1//EN" "http://www.w3.org/Graphics/SVG/1.1/DTD/svg11.dtd"><svg t="1657789938298" class="icon" viewBox="0 0 1024 1024" version="1.1" xmlns="http://www.w3.org/2000/svg" p-id="1628" xmlns:xlink="http://www.w3.org/1999/xlink" width="48" height="48"><defs><style type="text/css">@font-face { font-family: feedback-iconfont; src: url("//at.alicdn.com/t/font_1031158_u69w8yhxdu.woff2?t=1630033759944") format("woff2"), url("//at.alicdn.com/t/font_1031158_u69w8yhxdu.woff?t=1630033759944") format("woff"), url("//at.alicdn.com/t/font_1031158_u69w8yhxdu.ttf?t=1630033759944") format("truetype"); }
</style></defs><path d="M374.1 479.9l-60.3-60.3c49-49 114.1-76 183.3-76 69.3 0 134.4 27 183.3 76l-60.3 60.3c-32.8-32.9-76.5-50.9-123-50.9-46.5-0.1-90.2 18-123 50.9z" p-id="1629" fill="#8a8a8a"></path><path d="M756.3 343.7C687 274.5 595 236.3 497.1 236.3c-97.9 0-190 38.1-259.2 107.4l-60.3-60.3C262.9 198 376.4 151 497.1 151c120.7 0 234.2 47 319.5 132.4l-60.3 60.3zM253.2 863.3l-48.7-93.1h-30.6v93.1h-63.6V598.8h97c56.5 0 103.5 19.2 103.5 83.2 0 38.8-18.2 63.6-45.5 76.4l59 104.9h-71.1zM173.9 720h28.5c30.2 0 46.2-13.2 46.2-38s-16-33-46.2-33h-28.5v71zM361.9 598.8h168.9v52.6H425.6v58h90.3v53h-90.3v101h-63.7V598.8zM576.6 598.8h63.7v264.5h-63.7V598.8zM701 598.8h76.1c80.7 0 134 38.8 134 130.8 0 92.1-53.3 133.7-130.5 133.7H701V598.8z m72.2 213.3c42.7 0 72.9-19.6 72.9-82.5s-30.2-80.3-72.9-80.3h-8.5v162.8h8.5z" p-id="1630" fill="#8a8a8a"></path></svg>