<?xml version="1.0" standalone="no"?><!DOCTYPE svg PUBLIC "-//W3C//DTD SVG 1.1//EN" "http://www.w3.org/Graphics/SVG/1.1/DTD/svg11.dtd"><svg t="1657613962051" class="icon" viewBox="0 0 1024 1024" version="1.1" xmlns="http://www.w3.org/2000/svg" p-id="3475" xmlns:xlink="http://www.w3.org/1999/xlink" width="48" height="48"><defs><style type="text/css">@font-face { font-family: feedback-iconfont; src: url("//at.alicdn.com/t/font_1031158_u69w8yhxdu.woff2?t=1630033759944") format("woff2"), url("//at.alicdn.com/t/font_1031158_u69w8yhxdu.woff?t=1630033759944") format("woff"), url("//at.alicdn.com/t/font_1031158_u69w8yhxdu.ttf?t=1630033759944") format("truetype"); }
</style></defs><path d="M896 651.636364a34.909091 34.909091 0 0 0 34.909091-34.909091V139.636364a46.545455 46.545455 0 0 0-46.545455-46.545455h-139.636363V46.545455a46.545455 46.545455 0 0 0-46.545455-46.545455H325.818182a46.545455 46.545455 0 0 0-46.545455 46.545455v46.545454H139.636364a46.545455 46.545455 0 0 0-46.545455 46.545455v837.818181a46.545455 46.545455 0 0 0 46.545455 46.545455h744.727272a46.545455 46.545455 0 0 0 46.545455-46.545455v-151.272727a34.909091 34.909091 0 0 0-69.818182 0V954.181818H162.909091V162.909091h116.363636v46.545454a46.545455 46.545455 0 0 0 46.545455 46.545455h372.363636a46.545455 46.545455 0 0 0 46.545455-46.545455V162.909091h116.363636v453.818182a34.909091 34.909091 0 0 0 34.909091 34.909091zM674.909091 186.181818H349.090909V69.818182h325.818182zM302.545455 802.909091a34.909091 34.909091 0 0 0 34.90909 34.909091h349.09091a34.909091 34.909091 0 0 0 0-69.818182h-349.09091A34.909091 34.909091 0 0 0 302.545455 802.909091zM512 325.818182a34.909091 34.909091 0 0 0-34.909091 34.909091V581.818182l-72.145454-72.145455a34.909091 34.909091 0 0 0-49.338182 49.338182l139.636363 139.636364a23.272727 23.272727 0 0 0 32.814546 0l139.636363-139.636364a34.909091 34.909091 0 1 0-49.338181-49.338182L546.909091 581.818182v-221.090909A34.909091 34.909091 0 0 0 512 325.818182z" p-id="3476" fill="#cdcdcd"></path></svg>