<?xml version="1.0" standalone="no"?><!DOCTYPE svg PUBLIC "-//W3C//DTD SVG 1.1//EN" "http://www.w3.org/Graphics/SVG/1.1/DTD/svg11.dtd"><svg t="1657613447198" class="icon" viewBox="0 0 1024 1024" version="1.1" xmlns="http://www.w3.org/2000/svg" p-id="2347" xmlns:xlink="http://www.w3.org/1999/xlink" width="48" height="48"><defs><style type="text/css">@font-face { font-family: feedback-iconfont; src: url("//at.alicdn.com/t/font_1031158_u69w8yhxdu.woff2?t=1630033759944") format("woff2"), url("//at.alicdn.com/t/font_1031158_u69w8yhxdu.woff?t=1630033759944") format("woff"), url("//at.alicdn.com/t/font_1031158_u69w8yhxdu.ttf?t=1630033759944") format("truetype"); }
</style></defs><path d="M985.728 413.76c1.92 0 3.968 0 6.208 0-0.384-1.472-0.576-2.432-0.832-3.328-14.528-43.136-34.304-83.776-59.712-121.472-47.04-70.08-107.648-125.44-181.696-165.888-66.624-36.416-138.048-56.576-213.824-61.696C498.688 58.88 461.632 61.632 424.896 67.968 366.336 78.08 311.104 97.856 260.032 128.192 157.184 189.056 84.8 275.904 41.6 387.136 38.272 395.712 35.2 404.288 32 412.928c0 0.32 0 0.64 0 0.96 1.536-0.064 3.136-0.128 4.672-0.128C353.088 413.76 669.44 413.76 985.728 413.76z" p-id="2348" fill="#bfbfbf"></path><path d="M985.344 453.312c-220.992 0-441.984 0-662.976 0-96.832 0-193.536-0.064-290.304-0.064 0 170.048 0 340.16 0 510.272 38.528 0 76.928 0.064 115.392 0.064 0.704 0 1.408-0.256 2.496-0.512 0-126.336 0-252.416 0-378.88 241.664 0 482.944 0 724.736 0 0 126.528 0 252.736 0 379.008 39.488 0 78.464 0 117.376 0 0-170.048 0-339.776 0-509.888C989.632 453.312 987.52 453.312 985.344 453.312z" p-id="2349" fill="#bfbfbf"></path><path d="M211.584 683.904c203.584 0 406.784 0 610.112 0 0-15.872 0-31.296 0-46.912-203.84 0-407.04 0-610.112 0C211.584 652.864 211.584 668.416 211.584 683.904z" p-id="2350" fill="#bfbfbf"></path><path d="M821.568 724.224c-203.584 0-406.72 0-610.176 0 0 15.808 0 31.168 0 47.104 203.648 0 406.784 0 610.176 0C821.568 755.52 821.568 740.032 821.568 724.224z" p-id="2351" fill="#bfbfbf"></path><path d="M211.584 849.728c203.584 0 406.784 0 610.112 0 0-15.872 0-31.296 0-46.976-203.84 0-407.04 0-610.112 0C211.584 818.752 211.584 834.304 211.584 849.728z" p-id="2352" fill="#bfbfbf"></path><path d="M211.392 937.152c203.648 0 406.784 0 610.24 0 0-15.872 0-31.36 0-47.104-203.648 0-406.784 0-610.24 0C211.392 905.728 211.392 921.216 211.392 937.152z" p-id="2353" fill="#bfbfbf"></path></svg>