<?xml version="1.0" standalone="no"?><!DOCTYPE svg PUBLIC "-//W3C//DTD SVG 1.1//EN" "http://www.w3.org/Graphics/SVG/1.1/DTD/svg11.dtd"><svg t="1657792560376" class="icon" viewBox="0 0 1024 1024" version="1.1" xmlns="http://www.w3.org/2000/svg" p-id="3575" xmlns:xlink="http://www.w3.org/1999/xlink" width="48" height="48"><defs><style type="text/css">@font-face { font-family: feedback-iconfont; src: url("//at.alicdn.com/t/font_1031158_u69w8yhxdu.woff2?t=1630033759944") format("woff2"), url("//at.alicdn.com/t/font_1031158_u69w8yhxdu.woff?t=1630033759944") format("woff"), url("//at.alicdn.com/t/font_1031158_u69w8yhxdu.ttf?t=1630033759944") format("truetype"); }
</style></defs><path d="M508.5 631.07m-95.59 0a95.59 95.59 0 1 0 191.18 0 95.59 95.59 0 1 0-191.18 0Z" fill="#8a8a8a" opacity=".4" p-id="3576"></path><path d="M705.87 326.24H321.75a46.95 46.95 0 0 1-35.41-16.11 46.814 46.814 0 0 1-11.1-37.16c7.88-57.3 36.17-109.98 79.67-148.35a240.077 240.077 0 0 1 158.91-60.08c58.54 0 114.98 21.34 158.91 60.09 43.5 38.36 71.79 91.05 79.67 148.35a46.838 46.838 0 0 1-11.12 37.17 47.047 47.047 0 0 1-35.41 16.09z m-192.06-217.7c-97.8 0-181.63 73.27-194.98 170.43-0.12 0.85 0.11 1.6 0.68 2.25 0.41 0.47 1.13 1.02 2.25 1.02h384.12c0.89 0 1.65-0.34 2.24-1.02 0.57-0.66 0.8-1.42 0.69-2.26-13.37-97.15-97.2-170.42-195-170.42z" fill="#8a8a8a" p-id="3577"></path><path d="M707.62 737.54h222.91v193.99H707.62z" fill="#8a8a8a" opacity=".4" p-id="3578"></path><path d="M602.6 911.26H109.37c-13.32 0-26.17-5.6-35.24-15.35-9.03-9.71-13.67-22.85-12.71-36.06 3.53-48.83 14.79-96.41 33.46-141.42 18.13-43.72 42.9-84.23 73.62-120.41 30.53-35.95 66.24-66.8 106.14-91.7 38.47-24.01 80.05-41.98 123.7-53.48-22.66-27.15-35.05-61.26-35.05-96.88 0-19.67 3.72-38.82 11.06-56.93l5.53-13.64 266.92-1.76 5.71 13.56c7.85 18.64 11.82 38.41 11.82 58.77 0 35.6-12.38 69.7-35.01 96.84 52.51 13.05 88.82 24.23 132.36 54.98l-25.38 35.94c-40.01-28.26-73.53-37.42-124.89-50.02-13.65-3.35-24.22-13.39-28.27-26.84-4.07-13.51-0.77-27.77 8.81-38.15 18.31-19.84 28.4-45.67 28.4-72.75 0-9.61-1.24-19.02-3.71-28.13l-205.99 1.36c-2.23 8.69-3.35 17.64-3.35 26.76 0 27.07 10.08 52.91 28.4 72.75 9.58 10.38 12.87 24.64 8.81 38.15-4.05 13.46-14.62 23.49-28.27 26.84-173.06 42.46-298 190.88-310.92 369.33-0.1 1.37 0.51 2.34 1.04 2.91 0.56 0.6 1.54 1.32 3.03 1.32H602.6v44.01z" fill="#8a8a8a" p-id="3579"></path><path d="M509.08 666.9c-8.43 0-16.85-2.46-24.16-7.37L289.24 528.19l24.52-36.53 195.32 131.11L710.8 492.35l23.89 36.95L532.6 659.95a43.243 43.243 0 0 1-23.52 6.95z" fill="#8a8a8a" p-id="3580"></path><path d="M508.55 835.5c-12.15 0-22-9.85-22-22V663.28c0-12.15 9.85-22 22-22s22 9.85 22 22V813.5c0 12.15-9.85 22-22 22zM889.34 959.77H753.32c-38.17 0-69.22-31.05-69.22-69.22V635.63c0-38.17 31.05-69.22 69.22-69.22h12.46c9.52-25.29 33.85-43.01 62.42-43.01s52.9 17.73 62.42 43.02c37.55 0.69 67.91 31.47 67.94 69.19v254.94c0 38.17-31.05 69.22-69.22 69.22zM753.32 610.41c-13.91 0-25.22 11.31-25.22 25.22v254.92c0 13.91 11.31 25.22 25.22 25.22h136.02c13.91 0 25.22-11.31 25.22-25.22V635.63c-0.01-13.9-11.33-25.22-25.23-25.22h-37.64l-0.8-21.17c-0.46-12.25-10.43-21.84-22.7-21.84s-22.24 9.59-22.7 21.84l-0.8 21.17h-51.37z" fill="#8a8a8a" p-id="3581"></path><path d="M866.74 705.19H775.9c-12.15 0-22-9.85-22-22s9.85-22 22-22h90.84c12.15 0 22 9.85 22 22s-9.85 22-22 22zM866.74 784.68H775.9c-12.15 0-22-9.85-22-22s9.85-22 22-22h90.84c12.15 0 22 9.85 22 22s-9.85 22-22 22zM866.74 864.17H775.9c-12.15 0-22-9.85-22-22s9.85-22 22-22h90.84c12.15 0 22 9.85 22 22s-9.85 22-22 22z" fill="#8a8a8a" p-id="3582"></path><path d="M748.42 525.38m-22.02 0a22.02 22.02 0 1 0 44.04 0 22.02 22.02 0 1 0-44.04 0Z" fill="#8a8a8a" p-id="3583"></path><path d="M601.2 889.29m-21.99 0a21.99 21.99 0 1 0 43.98 0 21.99 21.99 0 1 0-43.98 0Z" fill="#8a8a8a" p-id="3584"></path></svg>